<?xml version="1.0" encoding="utf-8"?>
<!-- Generator: Adobe Illustrator 24.0.0, SVG Export Plug-In . SVG Version: 6.00 Build 0)  -->
<svg version="1.1" id="Layer_1" xmlns="http://www.w3.org/2000/svg" xmlns:xlink="http://www.w3.org/1999/xlink" x="0px" y="0px"
	 viewBox="0 0 91.7 75" style="enable-background:new 0 0 91.7 75;" xml:space="preserve">
<path d="M41.4,57.6c0-4.7-1.3-8.7-3.8-11.9c-1.8-2.2-4.2-3.7-7.3-4.3c-3.1-0.7-5.9-0.7-8.5-0.2c-0.9-5.1,0.5-10.5,4.2-16.2
	c3.6-5.7,8.3-10,14.1-12.9L31.3,0c-4.4,2.1-8.6,4.8-12.5,8.1s-7.4,7-10.5,11.2s-5.4,9-6.9,14.4s-1.9,10.9-1.2,16.6
	c0.9,7.5,3.4,13.5,7.5,18S16.9,75,23,75c5.3,0,9.7-1.6,13.2-4.7C39.7,67.2,41.4,63,41.4,57.6z M91.7,57.6c0-4.7-1.3-8.7-3.8-11.9
	c-1.8-2.2-4.2-3.7-7.3-4.4c-3.1-0.7-5.9-0.7-8.5-0.1c-0.9-5.1,0.5-10.5,4.2-16.2c3.6-5.7,8.3-10,14.1-12.9L81.7,0
	c-4.4,2.1-8.6,4.8-12.5,8.1c-3.9,3.2-7.4,7-10.4,11.2s-5.3,9-6.8,14.4S50,44.6,50.7,50.3c0.9,7.5,3.4,13.5,7.4,18S67.2,75,73.3,75
	c5.3,0,9.7-1.6,13.2-4.7C90,67.2,91.7,63,91.7,57.6z"/>
</svg>
